<svg width="600" height="600" viewBox="0 0 600 600" fill="none" xmlns="http://www.w3.org/2000/svg">
<path d="M335.07 445.113C332.274 449.941 331.005 452.572 330.21 455.142C329.416 457.7 329.086 460.187 329.003 463.221C327.218 463.509 325.454 463.767 323.71 463.994C322.255 459.537 320.553 457.36 318.706 455.41C316.859 453.449 314.847 451.716 311.298 449.384C315.734 449.776 317.963 450.798 319.831 452.026C321.698 453.253 323.194 454.688 325.505 457.628C328.013 451.004 331.129 446.825 335.07 445.113Z" fill="#DB8E7F"/>
<path d="M526.334 98.9244C526.974 103.371 527.294 108.128 526.922 113.535C526.551 118.931 525.488 124.977 523.909 131.127C522.331 137.276 520.247 143.539 517.285 149.854C514.324 156.168 510.496 162.535 505.915 169.221C501.323 175.907 495.979 182.892 491.119 188.814C486.269 194.727 481.905 199.555 476.313 205.045C470.71 210.544 463.869 216.694 457.689 221.729C451.508 226.764 445.978 230.674 440.561 234.306C435.144 237.928 429.83 241.261 424.692 244.139C419.554 247.008 414.591 249.422 408.761 251.537C402.952 253.642 396.276 255.458 386.98 256.335C386.887 253.601 386.866 251.29 386.969 248.617C391.148 246.017 393.872 243.293 396.483 240.27C399.103 237.257 401.611 233.945 403.365 226.681C403.912 214.723 402.766 210.018 400.971 205.757C399.506 202.279 397.607 199.112 395.007 195.779C394.419 195.026 393.79 194.252 393.129 193.478C389.528 189.268 384.803 184.667 379.314 180.478C373.824 176.288 367.582 172.502 362.165 169.468C361.907 169.324 361.659 169.179 361.402 169.045C356.346 166.239 351.909 164.072 345.718 162.039L345.708 162.029C309.822 140.011 257.17 130.993 187.74 134.986C193.828 132.582 200.524 130.064 208.386 127.454C218.064 124.245 229.528 120.902 240.692 118.24C251.845 115.567 262.721 113.566 272.595 111.667C282.469 109.758 291.353 107.942 300.866 105.941C310.39 103.949 320.542 101.772 331.479 98.9553C342.406 96.1385 354.127 92.682 364.879 89.0192C365.23 88.8953 365.58 88.7818 365.921 88.658C365.931 88.658 365.941 88.658 365.941 88.658C371.389 86.7905 376.59 84.8713 381.707 82.9316C386.299 81.1981 390.818 79.4544 395.389 77.721C405.377 73.924 415.581 70.1889 426.033 66.7014C436.485 63.2139 447.175 59.9741 455.439 57.9105C463.704 55.8469 469.534 54.9492 475.095 54.3921C480.656 53.8349 485.95 53.6079 491.263 55.1143C496.587 56.6311 501.932 59.8606 505.997 62.9869C510.052 66.1133 512.828 69.1261 515.583 72.9747C518.327 76.8233 521.062 81.5077 522.898 85.9238C524.745 90.3295 525.705 94.467 526.334 98.9244Z" fill="#8D709C"/>
<path d="M323.71 463.994C325.454 463.767 327.218 463.509 329.003 463.221C329.798 463.086 330.603 462.952 331.418 462.808C337.247 461.766 343.438 460.342 349.711 458.722C355.985 457.112 362.351 455.307 368.573 453.305C374.794 451.303 380.872 449.095 386.34 446.846C391.798 444.607 396.658 442.327 400.754 440.17C404.851 438.014 408.183 435.971 411.929 433.691C415.674 431.41 419.843 428.903 423.371 426.602C426.9 424.312 429.799 422.227 432.018 420.576C434.226 418.926 435.753 417.698 436.63 416.738C437.507 415.779 437.744 415.087 438.043 414.716C438.095 414.654 438.147 414.602 438.198 414.561C438.477 414.344 438.817 414.303 439.302 414.252C439.901 414.179 440.736 414.097 441.84 414.169C442.955 414.241 444.337 414.479 445.751 415.046C447.175 415.603 448.619 416.501 449.847 417.564C451.085 418.616 452.107 419.844 453.066 421.278C454.026 422.702 454.934 424.342 455.904 426.416C456.884 428.49 457.926 431.008 458.865 433.041C459.804 435.073 460.64 436.611 461.424 437.88C462.208 439.138 462.951 440.129 463.591 440.882C465.531 443.152 466.635 443.328 467.759 444.112C468.512 444.628 469.266 445.412 469.761 446.65C470.009 447.269 470.194 447.991 470.225 448.93C470.246 449.859 470.132 451.004 469.389 454.296C468.636 457.587 467.274 463.045 465.778 467.007C464.282 470.98 462.672 473.477 461.641 475.024C460.619 476.582 460.186 477.201 459.856 477.986C458.844 480.328 458.721 484.114 458.917 486.209C459.102 488.107 459.546 488.603 460.423 492.162C462.301 505.885 460.083 519.68 454.346 531.825H454.336C439.911 538.841 431.337 542.184 424.919 544.155C418.491 546.125 414.219 546.724 410.433 546.992C406.656 547.26 403.375 547.188 400.672 546.899C397.969 546.621 395.843 546.125 393.728 545.186C391.602 544.248 389.487 542.875 386.99 540.822C384.483 538.769 381.615 536.055 379.303 533.032C376.992 530.009 375.248 526.686 373.68 523.044C372.101 519.402 370.698 515.44 369.439 512.344C368.17 509.249 367.046 507.031 365.549 504.905C364.064 502.78 362.217 500.768 360.267 499.21C358.317 497.662 356.263 496.558 353.993 496.352C351.713 496.135 349.216 496.806 346.998 497.868C344.769 498.931 342.819 500.376 341.416 502.233C340.013 504.09 339.156 506.35 338.393 509.352C337.619 512.355 336.938 516.09 336.443 521.785C335.947 527.481 335.638 535.137 337.33 548.003L337.34 548.014C336.35 548.426 335.4 549.025 334.554 549.819C333.698 550.614 332.996 551.553 332.47 552.605C328.333 565.771 320.46 577.255 309.998 585.633H309.987C295.955 587.046 287.401 587.17 278.848 585.757C269.696 584.24 260.544 580.979 252.733 574.252C244.922 567.525 238.453 557.331 234.068 546.868C229.683 536.406 227.371 525.675 224.09 520.692C220.809 515.708 216.568 516.482 212.039 522.477C207.509 528.482 202.691 539.718 200.638 545.981C199.162 543.959 197.553 541.926 195.922 540.12C193.529 537.469 191.063 535.261 188.566 533.352C186.069 531.433 183.53 529.823 180.569 528.306C177.608 526.779 174.213 525.335 170.932 524.138C167.661 522.931 164.494 521.971 161.409 521.228C158.313 520.485 155.29 519.959 152.226 519.433C150.544 519.154 148.852 518.876 147.232 518.576C147.087 513.665 148.408 504.369 149.677 495.671C150.936 486.973 152.133 478.873 153.505 471.134C154.888 463.386 156.446 455.988 157.395 451.479C157.632 450.375 157.828 449.436 158.014 448.6C161.006 450.127 164.329 451.716 167.837 453.212C174.224 455.936 181.199 458.371 188.524 460.414C195.86 462.447 203.558 464.108 210.471 465.367C217.384 466.636 223.523 467.492 229.466 468.08C235.409 468.668 241.146 468.988 246.903 469.122C252.65 469.246 258.418 469.205 264.041 469.071C269.665 468.937 275.154 468.72 280.653 468.369C286.153 468.029 291.663 467.544 297.327 466.976C303.002 466.419 308.842 465.769 314.486 465.119C317.581 464.768 320.635 464.417 323.71 463.994Z" fill="#8D709C"/>
<path d="M454.336 531.825C451.085 538.717 446.7 545.083 441.273 550.603C415.385 576.914 373.907 576.801 348.164 550.531C345.357 547.322 340.993 546.445 337.34 548.014L337.33 548.003C335.638 535.137 335.947 527.481 336.443 521.785C336.938 516.09 337.619 512.355 338.393 509.352C339.156 506.35 340.013 504.09 341.416 502.233C342.819 500.376 344.769 498.931 346.998 497.868C349.216 496.806 351.713 496.135 353.993 496.352C356.263 496.558 358.317 497.662 360.267 499.21C362.217 500.768 364.064 502.78 365.549 504.905C367.046 507.031 368.17 509.249 369.439 512.344C370.698 515.44 372.101 519.402 373.68 523.044C375.248 526.686 376.992 530.009 379.303 533.032C381.615 536.055 384.483 538.769 386.99 540.822C389.487 542.875 391.602 544.248 393.728 545.186C395.843 546.125 397.969 546.621 400.672 546.899C403.375 547.188 406.656 547.26 410.433 546.992C414.219 546.724 418.491 546.125 424.919 544.155C431.337 542.184 439.911 538.841 454.336 531.825Z" fill="#684E77"/>
<path d="M438.198 414.561C438.147 414.602 438.095 414.654 438.043 414.716C437.744 415.087 437.507 415.779 436.63 416.738C435.753 417.698 434.226 418.926 432.018 420.576C429.799 422.227 426.9 424.312 423.371 426.602C419.842 428.903 415.674 431.41 411.929 433.691C408.183 435.971 404.85 438.014 400.754 440.17C396.658 442.327 391.798 444.607 386.34 446.846C380.872 449.095 374.794 451.303 368.573 453.305C362.351 455.307 355.985 457.112 349.711 458.722C343.438 460.342 337.247 461.766 331.418 462.808C330.602 462.952 329.798 463.086 329.003 463.221C329.086 460.187 329.416 457.7 330.21 455.142C331.005 452.572 332.274 449.941 335.07 445.113C331.129 446.825 328.013 451.004 325.505 457.628C323.194 454.688 321.698 453.253 319.83 452.026C317.963 450.798 315.734 449.776 311.298 449.384C314.847 451.716 316.859 453.449 318.706 455.41C320.553 457.36 322.255 459.537 323.71 463.994C320.635 464.417 317.581 464.768 314.486 465.119C308.842 465.769 303.002 466.419 297.327 466.976C291.662 467.544 286.153 468.029 280.653 468.369C275.154 468.72 269.665 468.937 264.041 469.071C258.418 469.205 252.65 469.246 246.903 469.122C241.146 468.988 235.409 468.668 229.466 468.08C223.523 467.492 217.383 466.636 210.47 465.367C203.557 464.108 195.86 462.447 188.524 460.414C181.198 458.371 174.223 455.936 167.837 453.212C164.328 451.716 161.006 450.127 158.014 448.6C158.561 446.021 158.953 444.37 159.768 441.398C160.841 437.477 162.657 431.256 164.824 425.044C167.001 418.843 169.539 412.652 172.552 406.389C175.565 400.137 179.042 393.791 184.211 387.28C189.38 380.77 196.242 374.073 215.918 362.961C217.373 363.384 218.776 363.621 220.283 363.817C222.305 364.086 224.493 364.271 226.453 364.333C228.424 364.395 230.167 364.323 232.169 364.117C234.16 363.91 236.42 363.58 238.7 362.889C240 362.497 241.3 361.991 242.58 361.382C242.941 361.217 243.292 361.031 243.643 360.856C255.075 358.989 262.102 354.057 266.714 350.497C271.326 346.947 273.534 344.77 275.484 342.5V342.49C282.222 344.265 289.155 344.956 296.048 344.574C283.635 345.823 274.225 356.946 274.834 369.967C275.453 383.391 286.493 393.75 299.483 393.1C308.79 392.646 316.962 386.548 320.315 377.561C311.483 384.144 299.153 382.09 292.777 372.959C286.4 363.828 288.392 351.085 297.224 344.492C306.046 343.842 314.775 341.427 322.895 337.228H322.905C323.235 339.24 323.731 341.365 324.432 343.553C325.66 347.68 326.527 349.754 327.538 351.735C328.559 353.716 329.736 355.594 331.387 357.255C333.048 358.927 335.184 360.392 337.763 361.702C340.332 363.013 343.355 364.168 346.864 365.066C350.372 365.974 354.365 366.634 358.626 367.088C362.898 367.532 367.427 367.769 371.74 368.006C376.053 368.233 380.16 368.45 383.822 368.853C387.496 369.255 390.725 369.833 394.46 370.73C398.206 371.618 402.446 372.815 406.326 374.393C410.205 375.972 413.724 377.922 416.386 379.872C419.038 381.812 420.823 383.752 423.113 386.445C425.414 389.127 428.221 392.563 430.676 396.67C433.132 400.776 435.237 405.553 438.198 414.561Z" fill="#F2BFAE"/>
<path d="M400.971 205.757C402.766 210.018 403.912 214.723 403.365 226.681C401.611 233.945 399.103 237.257 396.483 240.27C393.872 243.293 391.148 246.017 386.969 248.617C387 247.905 387.042 247.163 387.083 246.378C387.32 242.354 387.816 237.257 389.043 228.972C390.282 220.697 392.242 209.213 395.007 195.779C397.607 199.112 399.506 202.279 400.971 205.757Z" fill="#684E77"/>
<path d="M386.98 256.335C387 256.645 387.011 256.965 387.021 257.295C387.186 261.216 387.485 266.075 388.022 271.657C388.558 277.239 389.343 283.544 389.941 288.651C390.54 293.758 390.973 297.679 391.179 301.497C391.396 305.325 391.396 309.06 390.973 312.434C390.54 315.798 389.693 318.8 388.651 321.751C387.599 324.702 386.361 327.591 384.576 330.501C382.78 333.41 380.449 336.341 377.632 338.961C374.815 341.572 371.513 343.883 368.191 345.565C367.984 345.668 367.768 345.771 367.561 345.874C366.292 341.324 360.556 340.034 355.448 338.095C350.33 336.165 345.842 333.586 343.252 329.459C340.673 325.321 339.982 319.636 339.961 313.94C339.94 308.245 340.58 302.539 348.628 279.664C349.381 278.653 350.083 277.621 350.743 276.538C352.425 273.773 353.808 270.729 354.839 267.675C355.871 264.62 356.542 261.546 357.068 259.049C357.605 256.562 357.997 254.653 358.44 250.082C358.874 245.501 359.379 238.258 359.936 228.951C360.504 219.655 361.144 208.305 361.443 196.873C361.742 185.43 361.701 173.915 361.402 169.045C361.66 169.179 361.907 169.324 362.165 169.468C367.582 172.502 373.824 176.288 379.314 180.478C384.803 184.667 389.528 189.268 393.129 193.478C393.79 194.252 394.419 195.026 395.007 195.779C392.242 209.213 390.282 220.697 389.043 228.972C387.816 237.257 387.32 242.354 387.083 246.378C387.042 247.162 387 247.905 386.97 248.617C386.866 251.29 386.887 253.601 386.98 256.335Z" fill="#C49A6C"/>
<path d="M381.707 82.9316C376.59 84.8713 371.389 86.7905 365.941 88.658C365.941 88.658 365.931 88.658 365.921 88.658C352.208 88.3382 346.471 88.2866 341.808 88.204C337.134 88.1215 333.543 88.0183 330.107 87.75C326.661 87.4921 323.38 87.0691 320.202 86.4087C317.014 85.7587 313.939 84.8713 310.823 83.5094C307.717 82.1474 304.57 80.3108 301.867 78.3298C299.164 76.3487 296.904 74.2335 294.593 72.0358C292.282 69.8484 289.929 67.5888 287.411 65.5148C284.894 63.4512 282.232 61.5734 279.456 59.9328C276.681 58.2923 273.812 56.8787 270.645 55.7747C267.488 54.681 264.031 53.9071 260.502 53.3706C256.984 52.8444 253.393 52.5658 249.844 52.5968C246.305 52.6277 242.817 52.9888 239.402 53.6389C235.976 54.2889 232.623 55.2485 228.878 56.4144C225.132 57.5803 220.995 58.9629 216.806 60.6551C212.606 62.3575 208.366 64.3696 204.517 66.4538C200.668 68.538 197.222 70.6945 193.508 73.2946C189.793 75.8947 185.821 78.9385 182.406 81.4767C178.98 84.0253 176.112 86.0785 173.408 87.7913C170.705 89.5041 168.177 90.8867 165.113 92.4034C162.048 93.9202 158.458 95.5814 155.393 96.8711C152.339 98.1712 149.801 99.0895 146.313 100.09C142.826 101.101 138.379 102.195 134.045 102.917C129.722 103.65 125.512 104.001 121.736 104.125C117.949 104.248 114.606 104.145 111.655 103.805C108.715 103.464 106.187 102.907 103.803 102.216C101.43 101.525 99.2119 100.709 97.0864 99.7395C94.9609 98.7696 92.949 97.6346 90.7409 96.3965C88.5329 95.1583 86.1288 93.817 80.9595 91.7534C81.0111 91.6812 81.073 91.6193 81.1246 91.5574C82.0945 90.474 82.9715 89.8446 83.8485 89.4112C84.7152 88.9779 85.5819 88.7406 86.6343 88.5136C87.6971 88.2866 88.9456 88.0699 90.1218 88.0183C91.2981 87.977 92.3918 88.0905 93.7228 88.4207C95.0641 88.7406 96.6428 89.2668 98.1286 89.824C99.6247 90.3708 101.018 90.9486 102.524 91.5367C104.041 92.1249 105.661 92.7336 107.435 93.0741C109.2 93.4249 111.109 93.5178 113.296 93.4043C115.494 93.2805 117.98 92.94 120.9 92.3828C123.82 91.8153 127.163 91.0208 130.929 89.6176C134.695 88.2144 138.884 86.192 143.373 83.8292C147.861 81.4561 152.649 78.7425 157.013 76.1217C161.388 73.5009 165.34 70.9834 169.405 68.2697C173.481 65.5561 177.659 62.6465 181.818 59.7368C185.986 56.8271 190.123 53.9278 194.488 50.7292C198.863 47.5306 203.465 44.0535 207.551 40.9065C211.647 37.7595 215.227 34.9427 219.045 32.0228C222.873 29.1028 226.938 26.059 231.179 23.0564C235.43 20.0436 239.846 17.0617 244.499 14.3894C249.142 11.7067 254.023 9.33356 258.717 7.36283C263.402 5.3921 267.911 3.82377 272.089 2.58561C276.258 1.35778 280.106 0.470434 285.09 0.140259C290.063 -0.179598 296.182 0.0577154 301.619 0.749019C302.569 0.872834 303.497 1.00697 304.415 1.16174C341.89 11.8408 367.654 39.0906 381.707 82.9316Z" fill="#8D709C"/>
<path d="M90.2456 144.303C89.2035 147.749 87.4804 151.04 85.6438 153.94C83.8176 156.829 81.8572 159.336 79.9071 161.482C77.9466 163.628 75.9759 165.403 74.2425 166.92C72.5091 168.436 71.0233 169.675 69.2073 170.923C67.4017 172.172 65.2865 173.41 63.3261 174.297C61.3657 175.174 59.56 175.7 57.5171 175.907C55.4741 176.123 53.1939 176.031 51.1715 175.773C49.1595 175.515 47.4261 175.081 45.703 174.503C43.9902 173.915 42.2981 173.172 40.5234 172.13C38.7487 171.078 36.8812 169.726 35.6327 168.56C34.3842 167.394 33.7445 166.414 33.404 165.671C33.0532 164.939 33.0119 164.433 33.0016 163.866C32.9913 163.308 33.0222 162.7 33.3421 162.143C33.6516 161.596 34.2501 161.1 34.8485 160.719C35.447 160.327 36.0661 160.048 36.974 159.842C37.8923 159.635 39.1098 159.511 40.3893 159.233C41.6584 158.944 42.9894 158.5 44.7435 157.665C46.5078 156.818 48.7055 155.57 50.9342 153.589C53.1526 151.608 55.4122 148.894 57.383 146.232C59.364 143.56 61.0561 140.949 62.2221 138.783C63.388 136.626 64.0071 134.913 64.8119 132.943C65.6167 130.972 66.5969 128.743 67.6493 125.545C68.7121 122.356 69.847 118.198 70.8582 114.793C71.8694 111.399 72.7567 108.757 73.9329 105.703C75.1195 102.659 76.595 99.203 77.8641 96.6957C79.0507 94.3432 80.0412 92.8265 80.9595 91.7534C86.1288 93.817 88.5329 95.1583 90.7409 96.3965C92.949 97.6346 94.961 98.7696 97.0865 99.7395C99.212 100.709 101.43 101.525 103.803 102.216C106.187 102.907 108.715 103.464 111.655 103.805C114.606 104.145 117.949 104.248 121.736 104.125C125.512 104.001 129.722 103.65 134.045 102.917C138.379 102.195 142.826 101.101 146.313 100.09C149.801 99.0895 152.339 98.1712 155.393 96.8711C158.458 95.5814 162.048 93.9202 165.113 92.4034C168.177 90.8867 170.705 89.5041 173.408 87.7913C176.112 86.0785 178.98 84.0253 182.406 81.4767C185.821 78.9385 189.793 75.8947 193.508 73.2946C197.222 70.6945 200.668 68.538 204.517 66.4538C208.366 64.3695 212.606 62.3575 216.806 60.6551C220.995 58.9629 225.132 57.5803 228.878 56.4144C232.623 55.2485 235.976 54.2889 239.402 53.6389C242.817 52.9888 246.305 52.6277 249.844 52.5968C253.393 52.5658 256.984 52.8444 260.502 53.3706C264.031 53.9071 267.488 54.681 270.645 55.7747C273.812 56.8787 276.681 58.2923 279.456 59.9328C282.232 61.5734 284.894 63.4512 287.412 65.5148C289.929 67.5887 292.282 69.8484 294.593 72.0358C296.904 74.2335 299.164 76.3487 301.867 78.3297C304.57 80.3108 307.717 82.1474 310.823 83.5094C313.939 84.8713 317.014 85.7587 320.202 86.4087C323.38 87.0691 326.661 87.4921 330.107 87.75C333.543 88.0183 337.134 88.1215 341.808 88.204C346.472 88.2866 352.208 88.3382 365.921 88.658C365.58 88.7818 365.23 88.8953 364.879 89.0192C354.127 92.682 342.406 96.1385 331.48 98.9553C320.542 101.772 310.39 103.949 300.866 105.941C291.353 107.942 282.469 109.758 272.595 111.667C262.721 113.566 251.846 115.567 240.692 118.24C229.528 120.902 218.065 124.245 208.386 127.454C200.524 130.064 193.828 132.582 187.74 134.986C187.73 134.986 187.73 134.986 187.73 134.986C183.654 134.521 180.837 134.686 177.597 135.151C174.347 135.615 170.674 136.368 166.588 137.379C162.502 138.38 158.004 139.649 152.019 141.589C146.045 143.539 138.585 146.17 132.704 147.677C126.833 149.193 122.541 149.586 118.826 149.761C115.112 149.936 111.975 149.905 108.849 149.761C105.712 149.617 102.586 149.348 99.635 148.832C96.6841 148.316 93.9188 147.543 90.2456 144.303Z" fill="#684E77"/>
<path d="M355.448 338.095C360.556 340.034 366.292 341.324 367.561 345.874C364.435 347.391 361.298 348.361 358.306 349.155C355.118 350.002 352.105 350.621 349.041 350.765C345.976 350.91 342.85 350.579 339.012 349.62C335.163 348.66 330.592 347.071 324.432 343.553C323.731 341.365 323.236 339.24 322.905 337.228C322.431 334.432 322.255 331.832 322.224 329.572C322.204 328.767 322.204 328.014 322.214 327.302C322.276 323.113 322.627 320.492 323.421 317.005C324.226 313.528 325.464 309.184 329.932 296.028V296.018C331.975 294.625 333.987 293.15 335.844 291.726C339.28 289.115 342.19 286.691 344.635 284.245C346.121 282.749 347.441 281.243 348.628 279.664C340.58 302.539 339.94 308.245 339.961 313.94C339.982 319.636 340.673 325.321 343.252 329.459C345.842 333.586 350.331 336.165 355.448 338.095Z" fill="#96693B"/>
<path d="M312.814 155.395C307.191 154.848 301.661 154.59 296.491 154.6C292.839 154.61 289.372 154.755 286.101 154.992C282.232 155.271 278.631 155.683 275.34 156.148C269.252 157.004 264.217 158.036 258.924 159.45C253.631 160.873 248.1 162.669 243.086 164.433C238.061 166.187 233.552 167.9 229.363 169.798C225.184 171.687 221.325 173.75 217.611 176.144C213.906 178.527 210.336 181.241 206.808 184.295C203.279 187.36 199.791 190.775 195.045 195.975C193.033 198.173 190.815 200.69 188.266 204.395C190.134 207.366 189.773 213.134 189.535 218.252C189.298 223.38 189.195 227.878 188.7 233.336C188.204 238.805 187.327 245.243 186.605 251.228C186.172 254.798 185.8 258.203 185.48 261.391C179.413 266.55 174.997 269.026 171.004 270.987C167.011 272.957 163.431 274.423 159.716 275.764C155.992 277.095 152.133 278.302 148.15 279.365C144.157 280.428 140.05 281.346 135.634 282.264C131.218 283.193 126.493 284.121 122.035 284.813C117.578 285.504 113.389 285.948 109.685 286.061C105.991 286.185 102.772 285.979 100.027 285.514C97.2928 285.06 95.0229 284.348 92.8767 283.317C90.7203 282.295 88.6773 280.964 86.7066 279.097C84.7256 277.229 82.7961 274.825 81.4032 272.318C80.0103 269.81 79.1539 267.2 78.6276 264.29C78.0911 261.391 77.8951 258.182 78.0086 254.674C78.1221 251.156 78.5554 247.328 79.4737 243.139C80.392 238.939 81.7953 234.368 83.5596 229.55C85.324 224.731 87.4495 219.665 89.9052 214.651C92.3505 209.636 95.1364 204.683 98.9747 199.256C102.803 193.829 107.683 187.927 112.986 182.273C118.3 176.629 124.037 171.233 129.825 166.517C135.603 161.802 141.433 157.768 147.046 154.26C152.649 150.762 158.045 147.801 163.988 144.984C169.931 142.167 176.411 139.495 183.613 136.616C184.954 136.079 186.326 135.533 187.73 134.986C187.73 134.986 187.73 134.986 187.74 134.986C257.17 130.993 309.822 140.011 345.708 162.029C345.687 162.029 345.656 162.019 345.636 162.008C345.44 161.946 345.244 161.885 345.048 161.823C338.578 159.738 330.324 157.799 321.925 156.519C318.892 156.055 315.838 155.683 312.814 155.395Z" fill="#684E77"/>
<path d="M329.932 296.018C325.464 309.184 324.226 313.528 323.421 317.005C322.627 320.492 322.276 323.113 322.214 327.302C322.204 328.014 322.204 328.767 322.224 329.572C309.203 335.99 294.737 337.94 280.86 335.433C281.19 334.989 281.52 334.525 281.881 334.029C284.595 330.243 288.32 325.042 296.636 308.977C296.687 308.977 296.729 308.977 296.78 308.977C298.204 308.957 299.618 308.75 301.011 308.379C301.011 308.379 301.011 308.379 301.021 308.379C302.899 308.028 304.983 307.564 307.181 306.965C309.523 306.326 311.999 305.511 314.909 304.324C317.819 303.137 321.141 301.559 324.793 299.361C326.465 298.35 328.209 297.215 329.932 296.018Z" fill="#F2BFAE"/>
<path d="M280.86 335.433C294.737 337.94 309.203 335.99 322.224 329.572C322.255 331.832 322.431 334.432 322.905 337.228H322.895C314.775 341.427 306.046 343.842 297.224 344.492C296.832 344.523 296.44 344.554 296.048 344.574C289.155 344.956 282.222 344.265 275.484 342.49C270.366 341.159 265.372 339.199 260.595 336.619C260.998 334.442 261.214 332.162 261.328 329.582C261.338 329.293 261.348 329.005 261.359 328.705C267.56 331.986 274.143 334.236 280.86 335.433Z" fill="black"/>
<path d="M320.315 377.561C316.962 386.548 308.79 392.646 299.483 393.1C286.493 393.75 275.453 383.391 274.834 369.967C274.225 356.946 283.635 345.823 296.048 344.574C296.44 344.554 296.832 344.523 297.224 344.492C288.392 351.085 286.4 363.828 292.777 372.959C299.153 382.09 311.483 384.144 320.315 377.561Z" fill="#939598"/>
<path d="M309.987 585.633C307.335 587.769 304.519 589.688 301.547 591.39C269.51 609.746 229.136 597.787 211.368 564.687C210.295 562.572 209.263 560.529 208.345 558.755C206.127 554.473 204.548 551.718 202.598 548.798C201.979 547.869 201.318 546.93 200.637 545.981C202.691 539.718 207.509 528.482 212.039 522.477C216.568 516.482 220.809 515.708 224.09 520.692C227.371 525.675 229.683 536.406 234.068 546.868C238.453 557.331 244.922 567.525 252.733 574.252C260.544 580.979 269.696 584.24 278.848 585.757C287.401 587.17 295.955 587.046 309.987 585.633Z" fill="#684E77"/>
<path d="M294.5 309.008C295.274 309.029 295.975 309.019 296.636 308.977C288.32 325.042 284.595 330.243 281.881 334.029C281.52 334.525 281.19 334.989 280.86 335.433C274.143 334.236 267.56 331.986 261.359 328.705C261.493 325.507 261.483 321.875 261.359 318.181C261.225 314.157 260.967 310.05 260.575 305.748C260.337 303.055 260.048 300.29 259.77 297.69C269.097 303.065 272.977 304.933 276.371 306.099C279.766 307.275 282.665 307.75 285.73 308.173C288.794 308.596 292.024 308.957 294.5 309.008Z" fill="#DB8E7F"/>
<path d="M275.34 156.148C278.631 155.683 282.232 155.271 286.101 154.992C265.063 170.995 257.046 182.923 249.514 195.047C241.982 207.17 234.945 219.5 228.95 234.75C222.955 250 218.013 268.18 215.289 283.729C212.575 299.279 212.08 312.207 214.887 323.938C217.683 335.66 223.76 346.184 229.652 351.487C235.553 356.791 241.249 356.873 242.58 361.382C241.301 361.991 240.001 362.497 238.7 362.889C236.42 363.58 234.161 363.91 232.169 364.117C230.168 364.323 228.424 364.395 226.453 364.333C224.493 364.271 222.305 364.086 220.283 363.817C218.776 363.621 217.373 363.384 215.918 362.961C215.423 362.817 214.918 362.641 214.402 362.445C212.41 361.682 210.264 360.485 207.943 358.813C205.621 357.142 203.104 355.006 200.875 352.746C198.646 350.487 196.696 348.103 194.663 344.977C192.641 341.84 190.557 337.95 188.958 333.947C187.369 329.943 186.275 325.837 185.449 321.586C184.624 317.335 184.067 312.94 183.747 308.492C183.417 304.045 183.324 299.557 183.386 294.883C183.437 290.209 183.654 285.36 183.902 280.892C184.16 276.424 184.459 272.338 184.892 267.53C185.068 265.601 185.264 263.547 185.48 261.391C185.8 258.203 186.172 254.798 186.605 251.228C187.327 245.243 188.204 238.805 188.7 233.336C189.195 227.878 189.298 223.38 189.535 218.252C189.773 213.134 190.134 207.366 188.266 204.395C190.815 200.69 193.033 198.173 195.045 195.975C199.791 190.775 203.279 187.36 206.808 184.295C210.336 181.241 213.906 178.527 217.611 176.144C221.325 173.75 225.184 171.687 229.363 169.798C233.552 167.9 238.061 166.187 243.086 164.433C248.1 162.669 253.631 160.873 258.924 159.45C264.217 158.036 269.252 157.004 275.34 156.148Z" fill="#96693B"/>
<path d="M275.484 342.49C273.534 344.77 271.326 346.947 266.714 350.497C262.102 354.057 255.075 358.989 243.643 360.856C244.252 360.526 244.85 360.185 245.438 359.814C247.574 358.462 249.534 356.811 251.443 354.645C253.362 352.468 255.22 349.785 256.726 347.061C258.232 344.337 259.388 341.572 260.121 338.745C260.306 338.043 260.461 337.331 260.595 336.619C265.372 339.199 270.366 341.159 275.484 342.49Z" fill="#DB8E7F"/>
<path d="M192.146 367.676C197.16 366.356 202.742 365.066 215.918 362.961C196.242 374.073 189.381 380.77 184.211 387.28C179.042 393.791 175.565 400.137 172.552 406.389C169.539 412.652 167.001 418.843 164.824 425.044C162.657 431.255 160.841 437.477 159.768 441.398C158.953 444.37 158.561 446.021 158.014 448.6C155.558 447.352 153.33 446.155 151.4 445.092C147.118 442.739 144.343 441.047 142.785 440.015C141.216 438.973 140.866 438.592 140.556 438.024C140.401 437.735 140.267 437.405 140.112 437.095C140.112 437.085 140.112 437.085 140.112 437.085C140.412 432.721 141.98 426.427 143.538 421.175C145.086 415.913 146.623 411.713 148.305 407.617C149.987 403.531 151.823 399.548 153.773 395.782C155.713 392.006 157.777 388.436 160.222 385.495C162.667 382.555 165.515 380.254 168.58 378.056C171.634 375.869 174.915 373.784 178.794 372.072C182.664 370.349 187.121 368.997 192.146 367.676Z" fill="#DB8E7F"/>
<path d="M158.014 448.6C157.828 449.436 157.632 450.375 157.395 451.479C156.446 455.988 154.888 463.386 153.505 471.134C152.133 478.873 150.936 486.973 149.677 495.671C148.408 504.369 147.087 513.665 147.232 518.576C145.87 518.329 144.559 518.061 143.332 517.761C140.618 517.091 138.317 516.276 136.274 515.429C134.231 514.573 132.436 513.686 130.929 512.468C129.413 511.261 128.185 509.724 127.297 508.052C126.42 506.381 125.884 504.575 125.636 502.883C125.378 501.201 125.409 499.612 125.709 495.64C126.008 491.667 126.575 485.301 127.555 478.171C128.536 471.052 129.929 463.169 131.084 457.329C132.229 451.489 133.137 447.702 133.818 444.855C135.191 439.169 135.686 437.302 136.192 436.456C136.439 436.022 136.687 435.857 136.996 435.764C137.316 435.672 137.698 435.651 138.162 435.703C138.637 435.744 139.194 435.857 139.596 436.28C139.803 436.497 139.958 436.776 140.112 437.085C140.112 437.085 140.112 437.085 140.112 437.095C140.267 437.405 140.401 437.735 140.556 438.024C140.866 438.592 141.216 438.973 142.785 440.015C144.343 441.047 147.118 442.739 151.4 445.092C153.33 446.155 155.558 447.352 158.014 448.6Z" fill="#684E77"/>
<path d="M361.402 169.045C361.701 173.915 361.742 185.43 361.443 196.873C361.144 208.305 360.504 219.655 359.937 228.951C359.379 238.258 358.874 245.501 358.44 250.082C357.997 254.653 357.605 256.562 357.068 259.049C356.542 261.546 355.871 264.62 354.839 267.675C353.808 270.729 352.425 273.773 350.743 276.538C350.083 277.621 349.381 278.653 348.628 279.664C347.441 281.243 346.121 282.749 344.635 284.245C342.19 286.691 339.28 289.115 335.844 291.726C333.987 293.15 331.975 294.625 329.932 296.018C328.209 297.215 326.465 298.35 324.794 299.361C321.141 301.559 317.819 303.137 314.909 304.324C311.999 305.511 309.523 306.326 307.181 306.965C304.849 307.605 302.651 308.08 300.68 308.441C299.329 308.689 298.091 308.895 296.636 308.977C295.976 309.019 295.274 309.029 294.5 309.008C292.024 308.957 288.794 308.596 285.73 308.173C282.665 307.75 279.766 307.275 276.371 306.099C272.977 304.933 269.097 303.065 259.77 297.69C259.605 296.132 259.45 294.635 259.305 293.243C258.934 289.518 258.686 286.587 258.738 282.336C258.79 278.096 259.13 272.545 259.976 266.56C260.812 260.586 262.164 254.179 264.01 248.04C265.847 241.911 268.189 236.05 270.748 230.778C273.307 225.505 276.093 220.821 279.312 215.961C282.521 211.091 286.163 206.056 289.135 201.929C292.106 197.801 294.407 194.603 296.832 190.507C299.257 186.421 301.805 181.437 303.951 176.99C306.108 172.553 307.851 168.653 309.379 165.228C310.906 161.802 312.226 158.861 312.814 155.395C315.838 155.683 318.892 156.055 321.925 156.519C330.582 157.84 339.084 159.862 345.636 162.008C345.656 162.019 345.687 162.029 345.708 162.029L345.718 162.039C351.909 164.072 356.346 166.239 361.402 169.045Z" fill="#F2BFAE"/>
<path d="M323.824 216.776V228.879C323.824 233.481 327.538 237.206 332.13 237.206C336.721 237.206 340.446 233.481 340.446 228.879V216.776C340.446 215.662 340.219 214.558 339.775 213.526C340.559 212.917 341.22 212.267 341.849 211.473C342.468 210.668 343.056 209.729 343.479 208.615C343.892 207.5 344.16 206.221 344.253 205.045C344.336 203.868 344.264 202.795 343.913 201.712C343.562 200.639 342.943 199.555 342.458 198.833C341.973 198.111 341.602 197.76 341.385 197.585C341.148 197.42 341.044 197.43 340.931 197.471C340.817 197.502 340.673 197.564 340.642 197.74C340.621 197.915 340.704 198.193 340.797 198.575C340.89 198.957 341.003 199.442 340.982 200.195C340.972 200.948 340.848 201.97 340.425 203.817C340.002 205.653 339.301 208.315 337.495 210.431C336.009 209.161 334.1 208.46 332.13 208.46C327.538 208.46 323.824 212.185 323.824 216.776Z" fill="black"/>
<path d="M261.359 328.705C261.348 329.005 261.338 329.293 261.328 329.582C261.214 332.162 260.998 334.442 260.595 336.619C260.461 337.331 260.306 338.043 260.121 338.745C259.388 341.572 258.232 344.337 256.726 347.061C255.219 349.785 253.362 352.468 251.443 354.645C249.534 356.811 247.574 358.462 245.438 359.814C244.85 360.185 244.252 360.526 243.643 360.856C243.292 361.031 242.941 361.217 242.58 361.382C241.249 356.873 235.553 356.791 229.652 351.487C223.76 346.184 217.683 335.66 214.887 323.938C212.08 312.207 212.575 299.279 215.289 283.729C218.013 268.18 222.955 250 228.95 234.75C234.945 219.5 241.982 207.17 249.514 195.047C257.046 182.923 265.063 170.995 286.101 154.992C289.372 154.755 292.839 154.61 296.491 154.6C301.661 154.59 307.191 154.848 312.814 155.395C312.226 158.861 310.906 161.802 309.378 165.228C307.851 168.653 306.108 172.553 303.951 176.99C301.805 181.437 299.257 186.421 296.832 190.507C294.407 194.603 292.106 197.801 289.135 201.929C286.163 206.056 282.521 211.091 279.312 215.961C276.093 220.821 273.307 225.505 270.748 230.778C268.189 236.05 265.847 241.911 264.01 248.04C262.163 254.179 260.812 260.586 259.976 266.56C259.13 272.545 258.79 278.096 258.738 282.336C258.686 286.587 258.934 289.518 259.305 293.243C259.45 294.635 259.605 296.132 259.77 297.69C260.048 300.29 260.337 303.055 260.575 305.748C260.967 310.05 261.225 314.157 261.359 318.181C261.483 321.875 261.493 325.507 261.359 328.705Z" fill="#C49A6C"/>
</svg>
